<svg id="Layer_1" data-name="Layer 1" xmlns="http://www.w3.org/2000/svg" viewBox="0 0 512 512"><title>lab-flask-flat</title><rect y="9.14" width="512" height="493.72" rx="54.99" ry="54.99" transform="translate(512) rotate(90)" fill="#e6d6a6"/><rect x="20.23" y="11.1" width="471.53" height="489.81" rx="43.89" ry="43.89" fill="#c05358"/><path d="M376.71,397.75a63.57,63.57,0,0,0-3.57-8.51L307.69,264l-.13-.25c-5.15-8.77-7.26-27.82-7.68-34.63V122.51c6.11-2.74,8.45-9.86,8.45-15v-.36a15.06,15.06,0,0,0-8.66-13.08,21.61,21.61,0,0,0-9.12-2H221.46a21.54,21.54,0,0,0-9.1,2,15,15,0,0,0-8.66,13.08v.36c0,5.15,2.34,12.28,8.43,15v106.6c-.38,6.81-2.51,25.86-7.68,34.63l-.06.12L138.88,389.23a59.65,59.65,0,0,0-3.59,8.51c-2.42,7.29-2.42,12.79,0,16.77,1.23,2,4.22,5.4,10.66,5.4H366.07c6.45,0,9.45-3.38,10.66-5.4C379.13,410.53,379.13,405,376.71,397.75ZM214.14,269.26c7.56-13,9.06-38.6,9.14-39.69V112.49H217.7c-.86,0-1.48-.11-2.13-1.6a10.36,10.36,0,0,1-.71-3.24,3.82,3.82,0,0,1,2.34-3.54,10.39,10.39,0,0,1,4.26-.89h.17l.08,0h68.49l.19,0h.15a10.48,10.48,0,0,1,4.28.89,3.85,3.85,0,0,1,2.34,3.54,10.36,10.36,0,0,1-.71,3.24c-.65,1.49-1.29,1.6-2.15,1.6h-5.59V229.58c.08,1.09,1.57,26.66,9.16,39.69l18.43,35.31H195.69Z" fill="#eedaa6"/><rect x="268.96" y="134.95" width="7.05" height="200.59" fill="#eedaa6"/><rect x="252.66" y="297.43" width="19.93" height="4.28" fill="#eedaa6"/><rect x="252.77" y="280.18" width="19.72" height="4.21" fill="#eedaa6"/><rect x="252.77" y="261.06" width="19.72" height="4.2" fill="#eedaa6"/><rect x="252.77" y="243.54" width="19.72" height="4.21" fill="#eedaa6"/><rect x="252.77" y="224.41" width="19.72" height="4.22" fill="#eedaa6"/><rect x="252.77" y="207.53" width="19.72" height="4.22" fill="#eedaa6"/><rect x="252.77" y="188.42" width="19.72" height="4.21" fill="#eedaa6"/><rect x="252.77" y="170.25" width="19.72" height="4.22" fill="#eedaa6"/><rect x="252.77" y="151.15" width="19.72" height="4.22" fill="#eedaa6"/></svg>