<svg id="Layer_1" data-name="Layer 1" xmlns="http://www.w3.org/2000/svg" viewBox="0 0 512 512"><title>band-Aid-flat</title><rect width="512" height="512" fill="#ff7043"/><path d="M153.32,152.43a51.94,51.94,0,0,0-.89,73.46l21.27,21.79L248,175.09,226.76,153.3A52,52,0,0,0,153.32,152.43Z" fill="#fff"/><path d="M333.56,262.72,259.23,335.3l22.86,23.41a52,52,0,0,0,74.33-72.61Z" fill="#fff"/><path d="M286.11,152.43,153.32,282.08a51.95,51.95,0,0,0,72.57,74.35l132.8-129.65a51.95,51.95,0,1,0-72.58-74.34Zm7,23.15a6.57,6.57,0,1,1-6.58,6.58A6.58,6.58,0,0,1,293.11,175.59ZM165.75,346a6.57,6.57,0,1,1,7.08-6A6.59,6.59,0,0,1,165.75,346Zm8.32-20.48a6.58,6.58,0,1,1,7.1-6A6.6,6.6,0,0,1,174.07,325.55Zm4.42-23.3a6.57,6.57,0,1,1,7.08-6A6.57,6.57,0,0,1,178.49,302.25ZM190.61,344a6.57,6.57,0,1,1,7.11-6A6.56,6.56,0,0,1,190.61,344ZM195,320.7a6.57,6.57,0,1,1,7.1-6A6.57,6.57,0,0,1,195,320.7Zm16,18.94a6.57,6.57,0,1,1,7.09-6A6.6,6.6,0,0,1,211,339.64Zm81.66-74.36-26.57,24.57a32,32,0,0,1-45.2-1.76l-1-1a33,33,0,0,1,1.23-45.76l26.07-25.37a30.9,30.9,0,0,1,44.55,1.25l2.68,2.9A32,32,0,0,1,292.67,265.29Zm17.43-58.53a6.58,6.58,0,1,1,6.58-6.57A6.58,6.58,0,0,1,310.1,206.76Zm0-27a6.58,6.58,0,1,1,6.58,6.57A6.59,6.59,0,0,1,310.1,179.71Zm17.53,44.57a6.58,6.58,0,1,1,6.57-6.57A6.57,6.57,0,0,1,327.64,224.29Zm6-19.95a6.58,6.58,0,1,1,6.58-6.59A6.58,6.58,0,0,1,333.67,204.34Zm4.14-24.62a6.57,6.57,0,1,1,6.58-6.58A6.58,6.58,0,0,1,337.81,179.71Z" fill="#fff"/></svg>