<svg id="Layer_1" data-name="Layer 1" xmlns="http://www.w3.org/2000/svg" viewBox="0 0 512 512"><defs><style>.cls-1{fill:#141f38;}</style></defs><title>radioactive-symbol-outline</title><path class="cls-1" d="M256,320a64,64,0,1,0-64-64A64.07,64.07,0,0,0,256,320Zm0-102.4A38.4,38.4,0,1,1,217.6,256,38.4,38.4,0,0,1,256,217.6ZM256,0C114.61,0,0,114.61,0,256S114.61,512,256,512,512,397.38,512,256,397.38,0,256,0Zm0,486.4C129,486.4,25.6,383,25.6,256S129,25.6,256,25.6,486.4,129,486.4,256,383,486.4,256,486.4ZM458.63,226.09A204.54,204.54,0,0,0,383,95.41a25.91,25.91,0,0,0-38.53,7.3l-32.3,56A25.8,25.8,0,0,0,317,190.47a89.39,89.39,0,0,1,26.4,45.74A25.62,25.62,0,0,0,368.47,256h64.61A26,26,0,0,0,458.63,226.09Zm-25.54,4.31-64.71.17a115.91,115.91,0,0,0-34-59.11l32.34-56a.46.46,0,0,1,.21,0l.22.09A178.35,178.35,0,0,1,433.3,229.8C433.36,230.22,433.17,230.38,433.09,230.4ZM195,190.47a25.8,25.8,0,0,0,4.82-31.81l-32.3-56A25.91,25.91,0,0,0,129,95.41,204.54,204.54,0,0,0,53.37,226.09,26,26,0,0,0,78.91,256h64.61a25.62,25.62,0,0,0,25.07-19.78A89.39,89.39,0,0,1,195,190.47ZM143.53,230.4l-64.64,0c-.06,0-.25-.19-.19-.62a178.35,178.35,0,0,1,66.17-114.32c.12-.09.15-.09.22-.09l.25.12,32.22,56.22A115.64,115.64,0,0,0,143.53,230.4Zm168.68,123a25.75,25.75,0,0,0-22.33-12.88,26,26,0,0,0-7.68,1.16,89.07,89.07,0,0,1-52.39,0,26,26,0,0,0-7.68-1.16,25.75,25.75,0,0,0-22.33,12.88l-32.31,56a25.9,25.9,0,0,0,12.89,37,204.9,204.9,0,0,0,151.24,0,25.9,25.9,0,0,0,12.89-37Zm9.94,69.18a179.3,179.3,0,0,1-132.29,0,.3.3,0,0,1-.19-.41l32.6-56a114.68,114.68,0,0,0,67.48,0l.13,0,.16.07,32.35,56A.33.33,0,0,1,322.14,422.55Z"/></svg>